<svg xmlns="http://www.w3.org/2000/svg" width="419.182" height="108.803" viewBox="0 0 419.182 108.803"><g transform="translate(1.064 0)"><text transform="translate(-0.064 94.803)" fill="#141212" stroke="#707070" stroke-width="1" font-size="48" font-family="MicrosoftYaHei-Bold, Microsoft YaHei" font-weight="700"><tspan x="0" y="0">Fahad Murtaza</tspan></text><g transform="matrix(0.875, 0.485, -0.485, 0.875, 386.87, 0)"><g transform="translate(0 0)" fill="#12d2e1"><path d="M 6.243428230285645 69.60125732421875 C 5.906507968902588 69.60125732421875 5.556437969207764 69.41746520996094 5.202958106994629 69.05500030517578 C 3.742298126220703 67.55722045898438 2.465248107910156 63.41411972045898 1.607058167457581 57.38891983032227 C 0.725878119468689 51.20238876342773 0.3521781265735626 43.35006713867188 0.5547981262207031 35.27843856811523 C 0.7890081405639648 25.94823837280273 1.745498180389404 17.15882873535156 3.248058080673218 10.52929878234863 C 3.973298072814941 7.32943868637085 4.783967971801758 4.816958427429199 5.657537937164307 3.061638593673706 C 6.468348026275635 1.43242871761322 7.322567939758301 0.5228486657142639 8.062838554382324 0.5004486441612244 C 8.072668075561523 0.5001486539840698 8.082508087158203 0.4999986588954926 8.092308044433594 0.4999986588954926 C 8.429238319396973 0.4999986588954926 8.779297828674316 0.6837886571884155 9.132787704467773 1.046258687973022 C 10.59343814849854 2.544048547744751 11.87048816680908 6.687138557434082 12.72868824005127 12.7123384475708 C 13.60985851287842 18.89886856079102 13.98355770111084 26.75118827819824 13.78093814849854 34.82281875610352 C 13.54672813415527 44.15301895141602 12.59023857116699 52.94242858886719 11.08767795562744 59.57196044921875 C 10.3624382019043 62.77182006835938 9.55176830291748 65.2843017578125 8.678197860717773 67.03961944580078 C 7.867388248443604 68.66883087158203 7.013168334960938 69.57840728759766 6.272898197174072 69.60080718994141 C 6.263068199157715 69.60111236572266 6.253228187561035 69.60125732421875 6.243428230285645 69.60125732421875 Z" stroke="none"/><path d="M 8.092308044433594 0.9999923706054688 L 8.077968597412109 1.000205993652344 C 7.667628288269043 1.012626647949219 6.933887958526611 1.619209289550781 6.105168342590332 3.284408569335938 C 5.261387825012207 4.9798583984375 4.442038536071777 7.523319244384766 3.735688209533691 10.63982009887695 C 2.240198135375977 17.2381477355957 1.288047790527344 25.99276733398438 1.054648399353027 35.29097747802734 C 0.8526983261108398 43.33570861816406 1.224678039550781 51.15853881835938 2.102058410644531 57.31840896606445 C 2.933177947998047 63.15354919433594 4.193887710571289 67.30413055419922 5.560917854309082 68.70590972900391 C 5.736798286437988 68.88626861572266 5.997987747192383 69.10125732421875 6.243428230285645 69.10125732421875 L 6.257767677307129 69.10103607177734 C 6.668107986450195 69.08861541748047 7.401848316192627 68.48204040527344 8.230567932128906 66.81684875488281 C 9.074348449707031 65.12139892578125 9.893697738647461 62.57793807983398 10.60004806518555 59.46144104003906 C 12.09553813934326 52.86310958862305 13.04768848419189 44.10848999023438 13.28108787536621 34.81027984619141 C 13.4830379486084 26.76554870605469 13.11105823516846 18.94271850585938 12.23367786407471 12.7828369140625 C 11.40254783630371 6.947700500488281 10.14184761047363 2.797111511230469 8.774818420410156 1.395339965820313 C 8.598928451538086 1.214981079101563 8.337747573852539 0.9999923706054688 8.092308044433594 0.9999923706054688 M 8.09230899810791 -7.62939453125e-06 C 11.99718475341797 -7.62939453125e-06 14.76486968994141 15.55105972290039 14.28077793121338 34.83536911010742 C 13.7948579788208 54.19292831420898 10.21636772155762 69.98169708251953 6.288018226623535 70.10057830810547 C 6.273152351379395 70.10102844238281 6.258255958557129 70.10125732421875 6.243423461914063 70.10125732421875 C 2.338537216186523 70.10125732421875 -0.429133415222168 54.55018615722656 0.05495834350585938 35.26588821411133 C 0.5408782958984375 15.90832901000977 4.119368553161621 0.1195602416992188 8.047718048095703 0.00067138671875 C 8.062583923339844 0.00022125244140625 8.077476501464844 -7.62939453125e-06 8.09230899810791 -7.62939453125e-06 Z" stroke="none" fill="#707070"/></g><g transform="translate(22.336 10.527)" fill="#7fe49d"><path d="M 5.803406715393066 70.08054351806641 C 5.529436588287354 70.08054351806641 5.240736484527588 69.92707824707031 4.945296764373779 69.62442016601563 C 4.278016567230225 68.94083404541016 3.619916439056396 67.53977203369141 3.042146444320679 65.57270050048828 C 2.452476501464844 63.56511306762695 1.947966575622559 61.00607299804688 1.542636513710022 57.96665191650391 C 0.7073365449905396 51.70295333862305 0.3566065430641174 43.72812271118164 0.5550565719604492 35.51121139526367 C 0.782006561756134 26.11473083496094 1.683016538619995 17.26338195800781 3.092116594314575 10.58769130706787 C 4.650436401367188 3.20501184463501 6.423856735229492 0.5362417697906494 7.563896656036377 0.5003817677497864 C 7.571926593780518 0.5001317858695984 7.580286502838135 0.5000017881393433 7.588296413421631 0.5000017881393433 C 7.862256526947021 0.5000017881393433 8.150966644287109 0.653461754322052 8.446406364440918 0.9561217427253723 C 9.113677024841309 1.639701724052429 9.77177619934082 3.040771722793579 10.34954643249512 5.00784158706665 C 10.93921661376953 7.015421867370605 11.44372653961182 9.574461936950684 11.84905624389648 12.61388206481934 C 12.68436622619629 18.87758255004883 13.0350866317749 26.8524112701416 12.83663654327393 35.06932067871094 C 12.60968685150146 44.46580123901367 11.7086763381958 53.3171501159668 10.29958629608154 59.99285125732422 C 8.741266250610352 67.37553405761719 6.967846393585205 70.04430389404297 5.82780647277832 70.08016204833984 C 5.81977653503418 70.08041381835938 5.811416625976563 70.08054351806641 5.803406715393066 70.08054351806641 Z" stroke="none"/><path d="M 7.588296413421631 1 L 7.579616546630859 1.000144958496094 C 7.504486560821533 1.00250244140625 6.816346645355225 1.086410522460938 5.803956508636475 3.275001525878906 C 5.013076782226563 4.984748840332031 4.24449634552002 7.549140930175781 3.581336975097656 10.69095230102539 C 2.178376197814941 17.33755111694336 1.281147003173828 26.15652084350586 1.054916381835938 35.52329254150391 C 0.8570661544799805 43.71488952636719 1.206296920776367 51.66196441650391 2.038256645202637 57.90056228637695 C 3.157696723937988 66.29488372802734 4.694366455078125 68.65156555175781 5.303086280822754 69.27516174316406 C 5.414416790008545 69.38921356201172 5.62744665145874 69.58054351806641 5.803396701812744 69.58054351806641 L 5.812076568603516 69.58039855957031 C 5.887206554412842 69.57804107666016 6.57534646987915 69.49413299560547 7.5877366065979 67.3055419921875 C 8.378616333007813 65.59579467773438 9.147196769714355 63.03140258789063 9.810356140136719 59.88959121704102 C 11.21331596374512 53.24298095703125 12.11054611206055 44.42402267456055 12.33677673339844 35.05724334716797 C 12.53462696075439 26.86564254760742 12.18539619445801 18.91857147216797 11.35343647003174 12.67998123168945 C 10.23399639129639 4.285659790039063 8.69732666015625 1.928977966308594 8.088605880737305 1.305381774902344 C 7.97727632522583 1.191329956054688 7.764246463775635 1 7.588296413421631 1 M 7.588300704956055 0 C 11.23486709594727 0 13.80552101135254 15.66164779663086 13.33648681640625 35.08139038085938 C 12.86575698852539 54.57131958007813 9.511046409606934 70.46455383300781 5.84351634979248 70.57991027832031 C 5.830309391021729 70.58032989501953 5.816571235656738 70.58054351806641 5.80339241027832 70.58054351806641 C 2.156826972961426 70.58054351806641 -0.4138278961181641 54.91888809204102 0.055206298828125 35.49914169311523 C 0.5259361267089844 16.00921249389648 3.880646705627441 0.1159896850585938 7.548176765441895 0.00063323974609375 C 7.561383724212646 0.000213623046875 7.575121879577637 0 7.588300704956055 0 Z" stroke="none" fill="#707070"/></g></g></g></svg>